# Blender v3.1.2 OBJ File: 'basket.blend'
# www.blender.org
mtllib basket.mtl
o Cube
v -0.736725 0.444097 0.606239
v -0.671381 0.309501 0.555508
v -0.583443 0.191526 0.487237
v -0.221393 -0.021538 0.206155
v 0.093334 0.746754 0.808008
v 0.259001 0.746462 0.747444
v -0.260220 0.746754 0.808008
v -0.425887 0.746462 0.747444
v 0.002616 1.068664 0.490519
v 0.002616 1.166596 0.247355
v -0.169502 1.166596 0.247355
v -0.768330 0.742418 0.643402
v -0.776963 0.590142 0.637478
v -0.476291 0.094707 0.404048
v -0.354041 0.022764 0.309138
v -0.083443 0.745443 0.864889
v -0.083443 0.590142 0.860500
v -0.083443 0.444097 0.816320
v -0.083443 0.309501 0.744577
v -0.083443 0.191526 0.648027
v -0.083443 0.094707 0.530379
v -0.083443 0.022764 0.396157
v -0.083443 -0.021538 0.250517
v 0.601444 0.742418 0.643402
v 0.610077 0.590142 0.637478
v 0.569839 0.444097 0.606239
v 0.504495 0.309501 0.555508
v 0.416557 0.191526 0.487237
v 0.309405 0.094707 0.404048
v 0.187155 0.022764 0.309138
v 0.054507 -0.021538 0.206155
v -0.083443 1.018287 0.649827
v -0.169502 1.068664 0.490519
v -0.083443 1.218213 0.258564
v 0.897343 0.590142 0.099056
v 0.840437 0.444097 0.099056
v 0.610077 0.590142 -0.439366
v 0.569839 0.444097 -0.408127
v 0.504495 0.309501 -0.357397
v 0.054507 -0.021538 -0.008043
v -0.768330 0.742418 -0.445290
v -0.736725 0.444097 -0.408127
v -0.583443 0.191526 -0.289125
v -1.052020 0.742075 0.099056
v -1.007323 0.444097 0.099056
v -0.169502 1.166596 0.099056
v 0.259001 0.746462 -0.549332
v -0.425887 0.746462 -0.549332
v -0.169502 1.068664 -0.292407
v 0.002616 1.166596 -0.049243
v -0.169502 1.166596 -0.049243
v -1.064229 0.590142 0.099056
v -0.914913 0.309501 0.099056
v -0.790550 0.191526 0.099056
v -0.639014 0.094707 0.099056
v -0.466127 0.022764 0.099056
v -0.278533 -0.021538 0.099056
v -0.776963 0.590142 -0.439366
v -0.671381 0.309501 -0.357397
v -0.476291 0.094707 -0.205936
v -0.354041 0.022764 -0.111026
v -0.221393 -0.021538 -0.008043
v -0.083443 0.745443 -0.666777
v -0.083443 0.590142 -0.662388
v -0.083443 0.444097 -0.618209
v -0.083443 0.309501 -0.546465
v -0.083443 0.191526 -0.449915
v -0.083443 0.094707 -0.332268
v -0.083443 0.022764 -0.198045
v -0.083443 -0.021538 -0.052405
v 0.601444 0.742418 -0.445290
v 0.416557 0.191526 -0.289125
v 0.309405 0.094707 -0.205936
v 0.187155 0.022764 -0.111026
v 0.885134 0.742075 0.099056
v 0.748027 0.309501 0.099056
v 0.623664 0.191526 0.099056
v 0.472128 0.094707 0.099056
v 0.299241 0.022764 0.099056
v 0.111647 -0.021538 0.099056
v 0.002616 1.166596 0.099056
v -0.083443 1.218213 0.099056
v -0.260220 0.746754 -0.609896
v 0.093334 0.746754 -0.609896
v -0.083443 -0.036497 0.099056
v -0.083443 1.018287 -0.451715
v 0.002616 1.068664 -0.292407
v -0.083443 1.218213 -0.060453
v 0.532506 0.470459 0.561438
v 0.471644 0.347103 0.515476
v 0.389277 0.238473 0.453363
v 0.288379 0.148955 0.377387
v 0.172764 0.082262 0.290462
v 0.046944 0.041194 0.195991
v -0.728062 0.741019 0.593679
v -0.735542 0.599458 0.589590
v -0.699391 0.470459 0.561438
v -0.556163 0.238473 0.453363
v 0.239356 0.746997 0.686538
v -0.236977 0.732222 0.750176
v -0.406242 0.746997 0.686538
v -0.139806 1.111343 0.234669
v -0.638530 0.347103 0.515476
v -0.455265 0.148955 0.377387
v -0.339650 0.082262 0.290462
v -0.213830 0.041194 0.195991
v -0.083443 0.723499 0.804770
v -0.083443 0.599515 0.797191
v -0.083443 0.468109 0.756996
v -0.083443 0.344433 0.690954
v -0.083443 0.236109 0.602113
v -0.083443 0.147306 0.493921
v -0.083443 0.081424 0.370566
v -0.083443 0.040975 0.236811
v 0.561176 0.741019 0.593679
v 0.568656 0.599458 0.589590
v 0.070091 0.732222 0.750176
v -0.083443 0.970573 0.607175
v -0.143894 1.017786 0.461343
v -0.022992 1.017786 0.461343
v -0.083443 1.155834 0.244257
v -0.027080 1.111343 0.234669
v 0.821244 0.738354 0.099056
v 0.783410 0.473142 0.099056
v 0.583116 0.241041 0.099056
v 0.532506 0.470459 -0.363327
v -0.728062 0.741019 -0.395568
v -0.699391 0.470459 -0.363327
v -0.638530 0.347103 -0.317364
v -0.455265 0.148955 -0.179275
v -0.213830 0.041194 0.002121
v -0.950296 0.473142 0.099056
v -0.865419 0.350074 0.099056
v -0.267203 0.041450 0.099056
v -0.136583 1.111712 0.099056
v 0.070091 0.732222 -0.552064
v 0.239356 0.746997 -0.488426
v -0.406242 0.746997 -0.488426
v -0.022992 1.017786 -0.263231
v -0.143894 1.017786 -0.263231
v -0.027080 1.111343 -0.036557
v -0.139806 1.111343 -0.036557
v -0.988129 0.738354 0.099056
v -1.000930 0.599578 0.099056
v -0.750002 0.241041 0.099056
v -0.608061 0.150722 0.099056
v -0.444977 0.083166 0.099056
v -0.735542 0.599458 -0.391478
v -0.556163 0.238473 -0.255251
v -0.339650 0.082262 -0.092350
v -0.083443 0.723499 -0.606658
v -0.083443 0.599515 -0.599079
v -0.083443 0.468109 -0.558885
v -0.083443 0.344433 -0.492842
v -0.083443 0.236109 -0.404001
v -0.083443 0.147306 -0.295810
v -0.083443 0.081424 -0.172454
v -0.083443 0.040975 -0.038699
v 0.561176 0.741019 -0.395568
v 0.568656 0.599458 -0.391478
v 0.471644 0.347103 -0.317364
v 0.389277 0.238473 -0.255251
v 0.288379 0.148955 -0.179275
v 0.172764 0.082262 -0.092350
v 0.046944 0.041194 0.002121
v 0.834044 0.599578 0.099056
v 0.698533 0.350074 0.099056
v 0.441175 0.150722 0.099056
v 0.278092 0.083166 0.099056
v 0.100317 0.041450 0.099056
v -0.030303 1.111712 0.099056
v -0.083443 1.154213 0.099056
v -0.236977 0.732222 -0.552064
v -0.083443 0.027503 0.099056
v -0.083443 0.970573 -0.409064
v -0.083443 1.155834 -0.046145
vt 0.757498 0.906091
vt 0.760134 0.935936
vt 0.644435 0.912211
vt 0.655851 0.883115
vt 0.754944 0.877165
vt 0.666753 0.854961
vt 0.763233 0.971044
vt 0.628320 0.941456
vt 0.564265 0.893095
vt 0.532917 0.868974
vt 0.500186 0.843229
vt 0.521768 0.815881
vt 0.054382 0.915459
vt 0.026226 0.895199
vt 0.130117 0.778865
vt 0.146454 0.805511
vt 0.084366 0.933024
vt 0.162121 0.831319
vt 0.116210 0.947670
vt 0.177882 0.857026
vt 0.149928 0.959149
vt 0.194489 0.883260
vt 0.222608 0.971044
vt 0.185496 0.967109
vt 0.212864 0.910605
vt 0.234343 0.939657
vt 0.000185 0.872055
vt 0.027899 0.840973
vt 0.054536 0.811733
vt 0.109126 0.752896
vt 0.253417 0.888693
vt 0.256780 0.926791
vt 0.260687 0.971044
vt 0.236768 0.700126
vt 0.239868 0.735234
vt 0.242503 0.765079
vt 0.245056 0.794005
vt 0.247664 0.823541
vt 0.250418 0.854735
vt 0.292902 0.440045
vt 0.295754 0.420825
vt 0.325596 0.426460
vt 0.321840 0.446355
vt 0.300106 0.401889
vt 0.329353 0.406564
vt 0.139434 0.391311
vt 0.152034 0.359759
vt 0.241783 0.387090
vt 0.202550 0.403228
vt 0.139662 0.425285
vt 0.233198 0.432559
vt 0.545938 0.791001
vt 0.601166 0.748455
vt 0.677766 0.826890
vt 0.572381 0.768453
vt 0.632351 0.731244
vt 0.689519 0.798152
vt 0.702819 0.768010
vt 0.746583 0.782477
vt 0.749582 0.816435
vt 0.718875 0.735644
vt 0.743220 0.744379
vt 0.739312 0.700127
vt 0.752336 0.847630
vt 0.853547 0.865659
vt 0.869884 0.892304
vt 0.837880 0.839851
vt 0.822119 0.814144
vt 0.890875 0.918274
vt 0.973774 0.775970
vt 0.999815 0.799114
vt 0.972101 0.830196
vt 0.945464 0.859437
vt 0.945618 0.755710
vt 0.915633 0.738145
vt 0.883789 0.723500
vt 0.454062 0.880171
vt 0.344150 0.788056
vt 0.355566 0.758960
vt 0.478233 0.855291
vt 0.427619 0.902718
vt 0.333247 0.816210
vt 0.398833 0.922717
vt 0.322234 0.844281
vt 0.367649 0.939927
vt 0.310481 0.873019
vt 0.351087 0.451030
vt 0.355439 0.432094
vt 0.358291 0.412875
vt 0.448642 0.449692
vt 0.417994 0.420360
vt 0.409410 0.465829
vt 0.297181 0.903161
vt 0.281125 0.935527
vt 0.334026 0.953995
vt 0.298178 0.964372
vt 0.850071 0.712020
vt 0.805511 0.787910
vt 0.814504 0.704061
vt 0.787136 0.760565
vt 0.511531 0.427634
vt 0.511758 0.461608
vt 0.551932 0.221619
vt 0.595838 0.137380
vt 0.621888 0.146505
vt 0.570039 0.240169
vt 0.533450 0.202682
vt 0.569759 0.127952
vt 0.514340 0.183098
vt 0.543538 0.118547
vt 0.493931 0.162178
vt 0.516281 0.109141
vt 0.416783 0.083062
vt 0.454281 0.090952
vt 0.446147 0.113183
vt 0.652092 0.153048
vt 0.592470 0.263151
vt 0.443793 0.060953
vt 0.627272 0.000185
vt 0.655118 0.000838
vt 0.655467 0.037428
vt 0.656941 0.078085
vt 0.596175 0.002262
vt 0.564642 0.007288
vt 0.533457 0.015445
vt 0.502728 0.026933
vt 0.060951 0.002262
vt 0.061288 0.137380
vt 0.035239 0.146505
vt 0.029854 0.000186
vt 0.092484 0.007289
vt 0.087368 0.127953
vt 0.123669 0.015445
vt 0.113588 0.118547
vt 0.154398 0.026933
vt 0.140845 0.109141
vt 0.005034 0.153048
vt 0.000185 0.078085
vt 0.001660 0.037428
vt 0.002009 0.000838
vt 0.202845 0.090953
vt 0.210979 0.113183
vt 0.185621 0.139186
vt 0.170142 0.099832
vt 0.240342 0.083062
vt 0.087087 0.240169
vt 0.064657 0.263151
vt 0.105194 0.221619
vt 0.123676 0.202682
vt 0.142786 0.183098
vt 0.163195 0.162178
vt 0.291248 0.453625
vt 0.319556 0.458450
vt 0.317239 0.470721
vt 0.289999 0.468263
vt 0.145460 0.436242
vt 0.231441 0.446673
vt 0.194728 0.461891
vt 0.139434 0.464143
vt 0.184464 0.042030
vt 0.213333 0.060954
vt 0.303517 0.388641
vt 0.307692 0.374555
vt 0.333953 0.382198
vt 0.331636 0.394469
vt 0.161428 0.351670
vt 0.165990 0.323493
vt 0.216656 0.345751
vt 0.245293 0.373307
vt 0.475105 0.289745
vt 0.466617 0.263467
vt 0.457830 0.237152
vt 0.449072 0.210696
vt 0.440344 0.183204
vt 0.480913 0.320118
vt 0.405786 0.323122
vt 0.365147 0.320642
vt 0.328563 0.319407
vt 0.328563 0.291527
vt 0.331419 0.260459
vt 0.337240 0.229032
vt 0.325707 0.260459
vt 0.182021 0.289745
vt 0.190509 0.263467
vt 0.319886 0.229032
vt 0.199296 0.237152
vt 0.310939 0.198035
vt 0.208054 0.210696
vt 0.298669 0.167583
vt 0.216782 0.183204
vt 0.282804 0.137890
vt 0.225356 0.153674
vt 0.263140 0.109501
vt 0.233410 0.120751
vt 0.291979 0.320642
vt 0.251340 0.323122
vt 0.176214 0.320117
vt 0.347675 0.464279
vt 0.343501 0.478364
vt 0.361194 0.384656
vt 0.359945 0.399295
vt 0.511758 0.388776
vt 0.505733 0.416677
vt 0.419752 0.406246
vt 0.456465 0.391028
vt 0.489765 0.501249
vt 0.485203 0.529427
vt 0.434537 0.507169
vt 0.405900 0.479612
vt 0.346187 0.198035
vt 0.358457 0.167583
vt 0.374322 0.137890
vt 0.431770 0.153674
vt 0.393986 0.109501
vt 0.423716 0.120751
vt 0.471505 0.139186
vt 0.546140 0.381151
vt 0.657023 0.323493
vt 0.657023 0.336523
vt 0.556257 0.389363
vt 0.524851 0.450847
vt 0.537246 0.454868
vt 0.000185 0.576910
vt 0.044882 0.466733
vt 0.053564 0.475581
vt 0.012527 0.575745
vt 0.512129 0.484432
vt 0.524168 0.489417
vt 0.108990 0.440338
vt 0.113907 0.451717
vt 0.767907 0.381151
vt 0.757790 0.389363
vt 0.789195 0.450847
vt 0.776801 0.454868
vt 0.064710 0.676777
vt 0.071584 0.666461
vt 0.801917 0.484432
vt 0.789878 0.489416
vt 0.499159 0.493161
vt 0.486984 0.099832
vt 0.665974 0.717176
vt 0.701822 0.706799
vt 0.765657 0.731513
vt 0.777392 0.700126
vt 0.371681 0.729715
vt 0.435736 0.778076
vt 0.467084 0.802197
vt 0.499815 0.827943
vt 0.472662 0.042030
vt 0.165573 0.699756
vt 0.132626 0.690709
vt 0.135326 0.678610
vt 0.169218 0.687907
vn 0.8344 -0.3251 0.4452
vn 0.7546 -0.5181 0.4026
vn 0.8834 0.0515 0.4658
vn 0.3070 -0.0084 0.9517
vn -0.2942 -0.2767 0.9148
vn -0.2730 -0.4525 0.8489
vn -0.2415 -0.6146 0.7510
vn -0.2002 -0.7565 0.6226
vn -0.0932 -0.9526 0.2898
vn -0.3070 -0.0084 0.9517
vn -0.2281 -0.9660 0.1217
vn -0.0764 -0.9962 0.0408
vn -0.8834 0.0515 0.4658
vn -0.8344 -0.3251 0.4452
vn -0.7546 -0.5181 0.4026
vn -0.6461 -0.6810 0.3447
vn -0.5175 -0.8099 0.2761
vn -0.5144 0.8576 0.0000
vn 0.5144 0.8576 0.0000
vn 0.4071 0.6430 0.6487
vn -0.4071 0.6430 0.6487
vn 0.3931 0.8323 0.3908
vn -0.3931 0.8323 0.3908
vn -0.3764 -0.9044 0.2008
vn 0.2942 -0.2767 0.9148
vn 0.2415 -0.6146 0.7510
vn 0.2002 -0.7565 0.6226
vn 0.3764 -0.9044 0.2008
vn 0.2281 -0.9660 0.1217
vn 0.0764 -0.9962 0.0408
vn 0.6461 -0.6810 0.3447
vn 0.5175 -0.8099 0.2761
vn 0.8344 -0.3251 -0.4452
vn 0.7546 -0.5181 -0.4026
vn 0.6461 -0.6810 -0.3447
vn 0.8834 0.0515 -0.4658
vn 0.3070 -0.0084 -0.9517
vn 0.2942 -0.2767 -0.9148
vn 0.2730 -0.4525 -0.8489
vn 0.2415 -0.6146 -0.7510
vn -0.2942 -0.2767 -0.9148
vn -0.2730 -0.4525 -0.8489
vn -0.2415 -0.6146 -0.7510
vn -0.2002 -0.7565 -0.6226
vn -0.8344 -0.3251 -0.4452
vn -0.7546 -0.5181 -0.4026
vn -0.6461 -0.6810 -0.3447
vn -0.5175 -0.8099 -0.2761
vn 0.3931 0.8323 -0.3908
vn -0.3931 0.8323 -0.3908
vn -0.3764 -0.9044 -0.2008
vn -0.2281 -0.9660 -0.1217
vn -0.0764 -0.9962 -0.0408
vn -0.1502 -0.8714 -0.4671
vn -0.0932 -0.9526 -0.2898
vn -0.0316 -0.9947 -0.0982
vn 0.2002 -0.7565 -0.6226
vn 0.1502 -0.8714 -0.4671
vn 0.3764 -0.9044 -0.2008
vn 0.5175 -0.8099 -0.2761
vn 0.4071 0.6430 -0.6487
vn -0.8300 0.3314 -0.4487
vn -0.7517 0.5202 -0.4054
vn -0.6431 0.6831 -0.3461
vn -0.5146 0.8117 -0.2764
vn -0.0756 0.9964 -0.0390
vn -0.8810 -0.0569 -0.4697
vn -0.0321 0.9947 -0.0973
vn -0.3068 -0.0081 -0.9517
vn -0.2913 0.2805 -0.9146
vn -0.2712 0.4521 -0.8498
vn -0.2401 0.6142 -0.7517
vn -0.1993 0.7563 -0.6231
vn 0.2913 0.2805 -0.9146
vn 0.2712 0.4521 -0.8498
vn 0.2401 0.6142 -0.7517
vn 0.1993 0.7563 -0.6231
vn 0.3068 -0.0081 -0.9517
vn 0.2261 0.9666 -0.1205
vn 0.0756 0.9964 -0.0390
vn 0.8810 -0.0569 -0.4697
vn 0.8300 0.3314 -0.4487
vn 0.7517 0.5202 -0.4054
vn 0.6431 0.6831 -0.3461
vn 0.5146 0.8117 -0.2764
vn 0.6214 -0.7834 0.0106
vn 0.4216 -0.6506 -0.6317
vn 0.4776 -0.7955 -0.3729
vn 0.3738 0.9056 -0.2002
vn 0.1497 0.8714 -0.4671
vn 0.0321 0.9947 -0.0973
vn -0.6214 -0.7834 0.0106
vn -0.4216 -0.6506 -0.6317
vn -0.4776 -0.7955 -0.3729
vn -0.8300 0.3314 0.4487
vn -0.7517 0.5202 0.4054
vn -0.6431 0.6831 0.3461
vn -0.5146 0.8117 0.2764
vn -0.8810 -0.0569 0.4697
vn -0.3068 -0.0081 0.9517
vn -0.2913 0.2805 0.9146
vn -0.2712 0.4521 0.8498
vn 0.2913 0.2805 0.9146
vn 0.2712 0.4521 0.8498
vn 0.2401 0.6142 0.7517
vn 0.1993 0.7563 0.6231
vn 0.1497 0.8714 0.4671
vn 0.0930 0.9528 0.2890
vn 0.0321 0.9947 0.0973
vn 0.3068 -0.0081 0.9517
vn 0.3738 0.9056 0.2002
vn 0.0756 0.9964 0.0390
vn 0.8810 -0.0569 0.4697
vn 0.8300 0.3314 0.4487
vn 0.7517 0.5202 0.4054
vn 0.6431 0.6831 0.3461
vn 0.5146 0.8117 0.2764
vn 0.6214 -0.7834 -0.0106
vn -0.6214 -0.7834 -0.0106
vn -0.4216 -0.6506 0.6317
vn 0.4216 -0.6506 0.6317
vn -0.4776 -0.7955 0.3729
vn 0.4776 -0.7955 0.3729
vn -0.2401 0.6142 0.7517
vn -0.1993 0.7563 0.6231
vn -0.1497 0.8714 0.4671
vn -0.0930 0.9528 0.2890
vn -0.0321 0.9947 0.0973
vn -0.3738 0.9056 0.2002
vn -0.2261 0.9666 0.1205
vn -0.0756 0.9964 0.0390
vn -0.0382 0.9990 -0.0229
vn 0.0110 0.9998 -0.0138
vn 0.0382 0.9990 -0.0229
vn -0.8698 -0.4933 -0.0105
vn 0.8698 -0.4933 -0.0105
vn -0.0762 0.9931 -0.0896
vn 0.0762 0.9931 -0.0896
vn -0.0110 0.9998 -0.0138
vn 0.9036 -0.1331 -0.4073
vn -0.9036 -0.1331 -0.4073
vn 0.8998 -0.4013 -0.1714
vn -0.8998 -0.4013 -0.1714
vn -0.0382 0.9990 0.0229
vn 0.0110 0.9998 0.0138
vn 0.0382 0.9990 0.0229
vn -0.8698 -0.4933 0.0105
vn 0.8698 -0.4933 0.0105
vn -0.0762 0.9931 0.0896
vn -0.9036 -0.1331 0.4073
vn 0.8998 -0.4013 0.1714
vn -0.8998 -0.4013 0.1714
vn 0.2730 -0.4525 0.8489
vn -0.4071 0.6430 -0.6487
vn -0.2261 0.9666 -0.1205
vn 0.9036 -0.1331 0.4073
vn -0.0316 -0.9947 0.0982
vn -0.1502 -0.8714 0.4671
vn 0.1502 -0.8714 0.4671
vn 0.0932 -0.9526 0.2898
vn 0.0316 -0.9947 0.0982
vn 0.2281 -0.9660 -0.1217
vn 0.0764 -0.9962 -0.0408
vn 0.0932 -0.9526 -0.2898
vn 0.0316 -0.9947 -0.0982
vn -0.3070 -0.0084 -0.9517
vn -0.8834 0.0515 -0.4658
vn -0.3738 0.9056 -0.2002
vn -0.1497 0.8714 -0.4671
vn -0.0930 0.9528 -0.2890
vn 0.0930 0.9528 -0.2890
vn 0.2261 0.9666 0.1205
vn 0.0762 0.9931 0.0896
vn -0.0110 0.9998 0.0138
usemtl dark-brown
s off
f 36/1/1 35/2/1 25/3/1 26/4/1
f 76/5/2 36/1/2 26/4/2 27/6/2
f 35/2/3 75/7/3 24/8/3 25/3/3
f 25/3/4 24/8/4 6/9/4 5/10/4 16/11/4 17/12/4
f 18/13/5 17/14/5 13/15/5 1/16/5
f 19/17/6 18/13/6 1/16/6 2/18/6
f 20/19/7 19/17/7 2/18/7 3/20/7
f 21/21/8 20/19/8 3/20/8 14/22/8
f 23/23/9 22/24/9 15/25/9 4/26/9
f 17/14/10 16/27/10 7/28/10 8/29/10 12/30/10 13/15/10
f 4/26/11 15/25/11 56/31/11 57/32/11
f 85/33/12 4/26/12 57/32/12
f 13/15/13 12/30/13 44/34/13 52/35/13
f 1/16/14 13/15/14 52/35/14 45/36/14
f 2/18/15 1/16/15 45/36/15 53/37/15
f 3/20/16 2/18/16 53/37/16 54/38/16
f 14/22/17 3/20/17 54/38/17 55/39/17
f 11/40/18 34/41/18 82/42/18 46/43/18
f 34/41/19 10/44/19 81/45/19 82/42/19
f 16/46/20 5/47/20 9/48/20 32/49/20
f 7/50/21 16/46/21 32/49/21 33/51/21
f 32/49/22 9/48/22 10/44/22 34/41/22
f 33/51/23 32/49/23 34/41/23 11/40/23
f 56/31/24 15/25/24 14/22/24 55/39/24
f 18/52/25 26/4/25 25/3/25 17/12/25
f 20/53/26 28/54/26 27/6/26 19/55/26
f 21/56/27 29/57/27 28/54/27 20/53/27
f 30/58/28 79/59/28 78/60/28 29/57/28
f 31/61/29 80/62/29 79/59/29 30/58/29
f 85/63/30 80/62/30 31/61/30
f 28/54/31 77/64/31 76/5/31 27/6/31
f 29/57/32 78/60/32 77/64/32 28/54/32
f 36/1/33 38/65/33 37/66/33 35/2/33
f 76/5/34 39/67/34 38/65/34 36/1/34
f 77/64/35 72/68/35 39/67/35 76/5/35
f 35/2/36 37/66/36 71/69/36 75/7/36
f 37/66/37 64/70/37 63/71/37 84/72/37 47/73/37 71/69/37
f 38/65/38 65/74/38 64/70/38 37/66/38
f 39/67/39 66/75/39 65/74/39 38/65/39
f 72/68/40 67/76/40 66/75/40 39/67/40
f 65/77/41 42/78/41 58/79/41 64/80/41
f 66/81/42 59/82/42 42/78/42 65/77/42
f 67/83/43 43/84/43 59/82/43 66/81/43
f 68/85/44 60/86/44 43/84/44 67/83/44
f 42/78/45 45/36/45 52/35/45 58/79/45
f 59/82/46 53/37/46 45/36/46 42/78/46
f 43/84/47 54/38/47 53/37/47 59/82/47
f 60/86/48 55/39/48 54/38/48 43/84/48
f 51/87/18 46/43/18 82/42/18 88/88/18
f 88/88/19 82/42/19 81/45/19 50/89/19
f 86/90/49 88/88/49 50/89/49 87/91/49
f 49/92/50 51/87/50 88/88/50 86/90/50
f 56/31/51 55/39/51 60/86/51 61/93/51
f 57/32/52 56/31/52 61/93/52 62/94/52
f 85/33/53 57/32/53 62/94/53
f 61/93/54 60/86/54 68/85/54 69/95/54
f 62/94/55 61/93/55 69/95/55 70/96/55
f 85/33/56 62/94/56 70/96/56
f 68/97/57 67/76/57 72/68/57 73/98/57
f 69/99/58 68/97/58 73/98/58 74/100/58
f 74/100/59 73/98/59 78/60/59 79/59/59
f 73/98/60 72/68/60 77/64/60 78/60/60
f 84/101/61 63/102/61 86/90/61 87/91/61
f 124/103/62 89/104/62 116/105/62 166/106/62
f 167/107/63 90/108/63 89/104/63 124/103/63
f 125/109/64 91/110/64 90/108/64 167/107/64
f 168/111/65 92/112/65 91/110/65 125/109/65
f 174/113/66 94/114/66 170/115/66
f 166/106/67 116/105/67 115/116/67 123/117/67
f 174/113/68 114/118/68 94/114/68
f 116/105/69 108/119/69 107/120/69 117/121/69 99/122/69 115/116/69
f 89/104/70 109/123/70 108/119/70 116/105/70
f 90/108/71 110/124/71 109/123/71 89/104/71
f 91/110/72 111/125/72 110/124/72 90/108/72
f 92/112/73 112/126/73 111/125/73 91/110/73
f 109/127/74 97/128/74 96/129/74 108/130/74
f 110/131/75 103/132/75 97/128/75 109/127/75
f 111/133/76 98/134/76 103/132/76 110/131/76
f 112/135/77 104/136/77 98/134/77 111/133/77
f 108/130/78 96/129/78 95/137/78 101/138/78 100/139/78 107/140/78
f 106/141/79 134/142/79 147/143/79 105/144/79
f 174/145/80 134/142/80 106/141/80
f 96/129/81 144/146/81 143/147/81 95/137/81
f 97/128/82 132/148/82 144/146/82 96/129/82
f 103/132/83 133/149/83 132/148/83 97/128/83
f 98/134/84 145/150/84 133/149/84 103/132/84
f 104/136/85 146/151/85 145/150/85 98/134/85
f 102/152/86 135/153/86 172/154/86 121/155/86
f 100/156/87 119/157/87 118/158/87 107/159/87
f 119/157/88 102/152/88 121/155/88 118/158/88
f 147/143/89 146/151/89 104/136/89 105/144/89
f 105/144/90 104/136/90 112/135/90 113/160/90
f 174/145/91 106/141/91 114/161/91
f 122/162/92 121/163/92 172/164/92 171/165/92
f 117/166/93 107/167/93 118/168/93 120/169/93
f 120/169/94 118/168/94 121/163/94 122/162/94
f 124/103/95 166/106/95 160/170/95 126/171/95
f 167/107/96 124/103/96 126/171/96 161/172/96
f 125/109/97 167/107/97 161/172/97 162/173/97
f 168/111/98 125/109/98 162/173/98 163/174/98
f 166/106/99 123/117/99 159/175/99 160/170/99
f 160/170/100 159/175/100 137/176/100 136/177/100 151/178/100 152/179/100
f 126/171/101 160/170/101 152/179/101 153/180/101
f 161/172/102 126/171/102 153/180/102 154/181/102
f 153/182/103 152/179/103 148/183/103 128/184/103
f 154/185/104 153/182/104 128/184/104 129/186/104
f 155/187/105 154/185/105 129/186/105 149/188/105
f 156/189/106 155/187/106 149/188/106 130/190/106
f 157/191/107 156/189/107 130/190/107 150/192/107
f 158/193/108 157/191/108 150/192/108 131/194/108
f 174/145/109 158/193/109 131/194/109
f 152/179/110 151/178/110 173/195/110 138/196/110 127/197/110 148/183/110
f 150/192/111 130/190/111 146/151/111 147/143/111
f 174/145/112 131/194/112 134/142/112
f 148/183/113 127/197/113 143/147/113 144/146/113
f 128/184/114 148/183/114 144/146/114 132/148/114
f 129/186/115 128/184/115 132/148/115 133/149/115
f 149/188/116 129/186/116 133/149/116 145/150/116
f 130/190/117 149/188/117 145/150/117 146/151/117
f 142/198/118 176/199/118 172/154/118 135/153/118
f 176/200/119 141/201/119 171/165/119 172/164/119
f 151/202/120 136/203/120 139/204/120 175/205/120
f 173/206/121 151/207/121 175/208/121 140/209/121
f 175/205/122 139/204/122 141/201/122 176/200/122
f 140/209/123 175/208/123 176/199/123 142/198/123
f 155/210/124 162/173/124 161/172/124 154/181/124
f 156/211/125 163/174/125 162/173/125 155/210/125
f 157/212/126 164/213/126 163/174/126 156/211/126
f 158/214/127 165/215/127 164/213/127 157/212/127
f 174/113/128 165/215/128 158/214/128
f 164/213/129 169/216/129 168/111/129 163/174/129
f 165/215/130 170/115/130 169/216/130 164/213/130
f 174/113/131 170/115/131 165/215/131
f 24/217/132 75/218/132 123/219/132 115/220/132
f 6/221/133 24/217/133 115/220/133 99/222/133
f 44/223/134 12/224/134 95/225/134 143/226/134
f 11/40/135 46/43/135 135/153/135 102/152/135
f 81/45/136 10/44/136 122/162/136 171/165/136
f 5/227/137 6/221/137 99/222/137 117/228/137
f 8/229/138 7/50/138 100/156/138 101/230/138
f 12/224/139 8/229/139 101/230/139 95/225/139
f 9/48/140 5/47/140 117/166/140 120/169/140
f 7/50/141 33/51/141 119/157/141 100/156/141
f 10/44/142 9/48/142 120/169/142 122/162/142
f 33/51/143 11/40/143 102/152/143 119/157/143
f 75/218/144 71/231/144 159/232/144 123/219/144
f 71/231/145 47/233/145 137/234/145 159/232/145
f 41/235/146 44/223/146 143/226/146 127/236/146
f 46/43/147 51/87/147 142/198/147 135/153/147
f 50/89/148 81/45/148 171/165/148 141/201/148
f 47/233/149 84/237/149 136/238/149 137/234/149
f 49/92/150 83/239/150 173/206/150 140/209/150
f 87/91/151 50/89/151 141/201/151 139/204/151
f 51/87/152 49/92/152 140/209/152 142/198/152
usemtl light-straw
f 19/55/153 27/6/153 26/4/153 18/52/153
f 83/239/154 49/92/154 86/90/154 63/102/154
f 170/115/155 94/114/155 93/240/155 169/216/155
f 84/101/156 87/91/156 139/204/156 136/203/156
usemtl cream
f 85/33/157 23/23/157 4/26/157
f 15/25/158 22/24/158 21/21/158 14/22/158
f 22/241/159 30/58/159 29/57/159 21/56/159
f 23/242/160 31/61/160 30/58/160 22/241/160
f 85/63/161 31/61/161 23/242/161
f 80/62/162 40/243/162 74/100/162 79/59/162
f 85/63/163 40/243/163 80/62/163
f 40/243/164 70/244/164 69/99/164 74/100/164
f 85/63/165 70/244/165 40/243/165
f 64/80/166 58/79/166 41/245/166 48/246/166 83/247/166 63/248/166
f 58/79/167 52/35/167 44/34/167 41/245/167
f 169/216/168 93/240/168 92/112/168 168/111/168
f 93/240/169 113/249/169 112/126/169 92/112/169
f 94/114/170 114/118/170 113/249/170 93/240/170
f 106/141/171 105/144/171 113/160/171 114/161/171
f 131/194/172 150/192/172 147/143/172 134/142/172
f 83/250/173 48/251/173 138/252/173 173/253/173
f 48/251/174 41/235/174 127/236/174 138/252/174
